<svg xmlns="http://www.w3.org/2000/svg" width="1280" height="720" viewBox="0 0 1280 720" role="img" aria-label="Mentorfy Integrations Zoom tab English UI">
  <defs>
    <linearGradient id="bg" x1="0" y1="0" x2="1" y2="1">
      <stop offset="0%" stop-color="#0a0a0a"/>
      <stop offset="100%" stop-color="#111111"/>
    </linearGradient>
  </defs>
  <rect width="1280" height="720" fill="url(#bg)"/>
  <rect x="0" y="0" width="1280" height="56" fill="#111111"/>
  <rect x="0" y="55" width="1280" height="1" fill="#262626"/>
  <text x="32" y="36" fill="#ffffff" font-family="Inter,Segoe UI,Arial,sans-serif" font-size="18" font-weight="600">Mentorfy</text>
  <text x="1100" y="36" fill="#a3a3a3" font-family="Inter,Segoe UI,Arial,sans-serif" font-size="14">Integrations</text>

  <rect x="0" y="56" width="220" height="664" fill="#111111"/>
  <rect x="220" y="56" width="1" height="664" fill="#262626"/>
  <text x="24" y="96" fill="#737373" font-family="Inter,Segoe UI,Arial,sans-serif" font-size="11" font-weight="600">MENU</text>
  <text x="24" y="130" fill="#a3a3a3" font-family="Inter,Segoe UI,Arial,sans-serif" font-size="14">My mentoring</text>
  <text x="24" y="162" fill="#a3a3a3" font-family="Inter,Segoe UI,Arial,sans-serif" font-size="14">Meetings</text>
  <rect x="16" y="176" width="188" height="32" rx="6" fill="#262626"/>
  <text x="24" y="196" fill="#ffffff" font-family="Inter,Segoe UI,Arial,sans-serif" font-size="14">Integrations</text>
  <text x="24" y="234" fill="#a3a3a3" font-family="Inter,Segoe UI,Arial,sans-serif" font-size="14">Clients</text>

  <rect x="252" y="88" width="120" height="32" rx="6" fill="#262626"/>
  <text x="268" y="108" fill="#d4d4d4" font-family="Inter,Segoe UI,Arial,sans-serif" font-size="13">Inbound URLs</text>
  <rect x="380" y="88" width="100" height="32" rx="6" fill="#262626"/>
  <text x="396" y="108" fill="#d4d4d4" font-family="Inter,Segoe UI,Arial,sans-serif" font-size="13">Webhooks</text>
  <rect x="528" y="88" width="72" height="32" rx="6" fill="#7c3aed"/>
  <text x="544" y="108" fill="#ffffff" font-family="Inter,Segoe UI,Arial,sans-serif" font-size="13">Zoom</text>

  <text x="252" y="168" fill="#ffffff" font-family="Inter,Segoe UI,Arial,sans-serif" font-size="24" font-weight="600">Zoom Integration</text>
  <text x="252" y="204" fill="#737373" font-family="Inter,Segoe UI,Arial,sans-serif" font-size="14">Connect the mentor&apos;s Zoom account to create Zoom events in meetings.</text>

  <rect x="252" y="236" width="760" height="160" rx="12" fill="#0a0a0a" stroke="#262626"/>
  <rect x="276" y="260" width="44" height="44" rx="8" fill="#064e3b"/>
  <text x="332" y="286" fill="#ffffff" font-family="Inter,Segoe UI,Arial,sans-serif" font-size="16" font-weight="600">Zoom connected</text>
  <circle cx="470" cy="278" r="6" fill="#34d399"/>
  <text x="332" y="312" fill="#737373" font-family="Inter,Segoe UI,Arial,sans-serif" font-size="14">mentor@example.com</text>
  <text x="332" y="336" fill="#525252" font-family="Inter,Segoe UI,Arial,sans-serif" font-size="12">Last validated: Jun 26, 2026</text>
  <rect x="860" y="268" width="72" height="36" rx="6" fill="none" stroke="#404040"/>
  <text x="876" y="290" fill="#e5e5e5" font-family="Inter,Segoe UI,Arial,sans-serif" font-size="13">Test</text>
  <rect x="960" y="268" width="100" height="36" rx="6" fill="none" stroke="#7f1d1d"/>
  <text x="972" y="290" fill="#fca5a5" font-family="Inter,Segoe UI,Arial,sans-serif" font-size="13">Disconnect</text>
</svg>
